<?xml version="1.0" encoding="UTF-8" standalone="no"?>
<svg
   xmlns:dc="http://purl.org/dc/elements/1.1/"
   xmlns:cc="http://creativecommons.org/ns#"
   xmlns:rdf="http://www.w3.org/1999/02/22-rdf-syntax-ns#"
   xmlns:svg="http://www.w3.org/2000/svg"
   xmlns="http://www.w3.org/2000/svg"
   xmlns:sodipodi="http://sodipodi.sourceforge.net/DTD/sodipodi-0.dtd"
   xmlns:inkscape="http://www.inkscape.org/namespaces/inkscape"
   width="106"
   height="20"
   id="svg26376"
   version="1.1"
   inkscape:version="0.91 r13725"
   sodipodi:docname="94da.svg">
  <metadata
     id="metadata26408">
    <rdf:RDF>
      <cc:Work
         rdf:about="">
        <dc:format>image/svg+xml</dc:format>
        <dc:type
           rdf:resource="http://purl.org/dc/dcmitype/StillImage" />
        <dc:title></dc:title>
      </cc:Work>
    </rdf:RDF>
  </metadata>
  <defs
     id="defs26406" />
  <sodipodi:namedview
     pagecolor="#ffffff"
     bordercolor="#666666"
     borderopacity="1"
     objecttolerance="10"
     gridtolerance="10"
     guidetolerance="10"
     inkscape:pageopacity="0"
     inkscape:pageshadow="2"
     inkscape:window-width="1219"
     inkscape:window-height="776"
     id="namedview26404"
     showgrid="false"
     inkscape:zoom="1.18"
     inkscape:cx="16.631649"
     inkscape:cy="41.21134"
     inkscape:window-x="61"
     inkscape:window-y="24"
     inkscape:window-maximized="1"
     inkscape:current-layer="svg26376" />
  <linearGradient
     id="b"
     x2="0"
     y2="100%">
    <stop
       offset="0"
       stop-color="#bbb"
       stop-opacity=".1"
       id="stop26379" />
    <stop
       offset="1"
       stop-opacity=".1"
       id="stop26381" />
  </linearGradient>
  <mask
     id="a">
    <rect
       width="106"
       height="20"
       rx="3"
       fill="#fff"
       id="rect26384" />
  </mask>
  <g
     mask="url(#a)"
     id="g26386">
    <path
       fill="#555"
       d="M0 0h37v20H0z"
       id="path26388" />
    <path
       d="M37 0h77v20H37z"
       fill="#d9644d"
       id="path26390" />
    <path
       fill="url(#b)"
       d="M0 0h106v20H0z"
       id="path26392" />
  </g>
  <text
     style="font-size:medium;font-family:'DejaVu Sans', Verdana, Geneva, sans-serif;text-anchor:end;fill:#010101;fill-opacity:0.3"
     id="text26400"
     y="15"
     x="102.5">00.0000%</text>
  <text
     style="font-size:medium;font-family:'DejaVu Sans', Verdana, Geneva, sans-serif;text-anchor:end;fill:#ffffff"
     id="text26402"
     y="14"
     x="102.5">00.0000%</text>
  <path
     d="m 18.60837,2.6065916 c 0,0 1.239845,3.0331878 -4.073899,5.0705689 -2.887366,1.1067458 -5.1050337,3.9434445 -2.45714,8.3254405 0.219289,-1.95868 1.159585,-6.2773135 5.202805,-7.2627919 0,0 -3.763186,1.4071579 -4.095614,7.7767859 1.933681,0.271487 6.468735,0.453917 7.815176,-3.481621 C 22.777674,7.8352591 18.60837,2.6065916 18.60837,2.6065916 Z"
     style="font-size:medium;font-family:'DejaVu Sans', Verdana, Geneva, sans-serif;text-anchor:middle;fill:#cccccc" />
  <path
     d="M 13.186276,16.490092 C 17.291327,14.851785 20.278247,11.013851 20.690489,6.4322768 19.851277,4.1685634 18.60837,2.6065916 18.60837,2.6065916 c 0,0 1.239845,3.0331878 -4.073899,5.0705689 -2.887366,1.1067458 -5.1050337,3.9434445 -2.45714,8.3254405 0.219289,-1.95868 1.159585,-6.2773135 5.202805,-7.2627919 -2.23e-4,2.78e-5 -3.752218,1.4036779 -4.09386,7.7502829 z"
     style="font-size:medium;font-family:'DejaVu Sans', Verdana, Geneva, sans-serif;text-anchor:middle;fill:#ffffff" />
</svg>
