<?xml version="1.0" encoding="iso-8859-1"?>
<!-- Generator: Adobe Illustrator 19.0.0, SVG Export Plug-In . SVG Version: 6.00 Build 0)  -->
<svg version="1.1" id="Layer_1" xmlns="http://www.w3.org/2000/svg" xmlns:xlink="http://www.w3.org/1999/xlink" x="0px" y="0px"
	 viewBox="0 0 512 512" style="enable-background:new 0 0 512 512;" xml:space="preserve">
<g>
	<polygon style="fill:#FF6F52;" points="247.432,366.338 239.465,394.929 209.168,503.584 169.142,458.98 111.824,476.44 
		144.444,359.448 151.48,334.234 207.227,340.181 	"/>
	<polygon style="fill:#FF6F52;" points="401.353,476.44 344.024,458.98 304.009,503.584 273.701,394.929 265.734,366.349 
		305.939,340.181 361.697,334.234 368.733,359.448 	"/>
</g>
<path style="fill:#FCD577;" d="M416.251,188.287c0-18.314,16.81-39.07,11.446-55.595c-5.561-17.127-31.547-23.997-41.922-38.252
	c-10.478-14.399-9.053-41.199-23.452-51.678c-14.255-10.375-39.253-0.808-56.38-6.369c-16.527-5.366-31.043-27.977-49.358-27.977
	s-32.831,22.611-49.355,27.977c-17.127,5.561-42.124-4.006-56.381,6.369C136.45,53.24,137.875,80.041,127.397,94.44
	c-10.375,14.255-36.361,21.125-41.922,38.251c-5.366,16.525,11.444,37.282,11.444,55.596s-16.81,39.07-11.446,55.595
	c5.561,17.127,31.547,23.997,41.922,38.252c10.478,14.399,9.053,41.199,23.452,51.678c14.255,10.375,39.253,0.808,56.38,6.369
	c16.525,5.366,31.042,27.977,49.356,27.977s32.831-22.611,49.355-27.977c17.127-5.561,42.124,4.006,56.381-6.369
	c14.399-10.478,12.974-37.279,23.452-51.678c10.375-14.255,36.361-21.125,41.922-38.251
	C433.062,227.357,416.251,206.601,416.251,188.287z"/>
<g>
	<path style="fill:#E25749;" d="M207.227,340.181l40.205,26.157l-7.967,28.592c-11.008-7.092-21.174-18.414-32.238-22.005
		c-17.124-5.566-42.124,4.006-56.375-6.374c-2.592-1.896-4.679-4.309-6.407-7.103l7.036-25.214L207.227,340.181z"/>
	<path style="fill:#E25749;" d="M368.733,359.448c-1.728,2.794-3.815,5.207-6.407,7.103c-14.262,10.38-39.263,0.808-56.386,6.374
		c-11.064,3.591-21.23,14.913-32.238,22.005l-7.967-28.58l40.205-26.168l55.758-5.947L368.733,359.448z"/>
</g>
<circle style="fill:#CFDCE5;" cx="256.584" cy="188.291" r="113.289"/>
<path d="M355.388,133.221c-4.22,1.948-6.062,6.948-4.115,11.168c6.369,13.799,9.599,28.568,9.599,43.897
	c0,57.827-47.045,104.872-104.871,104.872c-57.827,0-104.872-47.045-104.872-104.872c0-57.826,47.045-104.872,104.872-104.872
	c29.573,0,57.924,12.585,77.781,34.528c3.119,3.446,8.439,3.711,11.888,0.594c3.446-3.119,3.712-8.441,0.592-11.888
	c-23.043-25.462-55.942-40.065-90.261-40.065c-67.108,0-121.704,54.596-121.704,121.704s54.596,121.704,121.704,121.704
	c67.107,0,121.703-54.596,121.703-121.704c0-17.782-3.751-34.925-11.148-50.951C364.608,133.116,359.607,131.274,355.388,133.221z"
	/>
<path d="M424.083,188.286c0-6.442,2.82-13.903,5.806-21.802c4.508-11.925,9.169-24.257,5.228-36.393
	c-4.106-12.644-15.903-20.329-26.311-27.111c-6.836-4.454-13.294-8.661-16.812-13.495c-3.593-4.937-5.636-12.456-7.8-20.416
	c-3.235-11.905-6.902-25.398-17.505-33.114c-10.496-7.638-23.794-7.011-36.652-6.405c-8.306,0.392-16.151,0.762-22.081-1.164
	c-5.519-1.792-11.42-6.562-17.667-11.612C280.56,8.913,269.533,0,256.001,0c-13.533,0-24.56,8.913-34.289,16.777
	c-6.247,5.05-12.148,9.819-17.665,11.611c-5.93,1.926-13.776,1.555-22.082,1.164c-12.858-0.607-26.157-1.234-36.653,6.405
	c-10.603,7.716-14.269,21.209-17.505,33.114c-2.163,7.96-4.207,15.478-7.8,20.416c-3.518,4.834-9.976,9.041-16.812,13.495
	c-10.409,6.781-22.206,14.467-26.31,27.11c-3.941,12.136,0.72,24.468,5.228,36.394c2.985,7.899,5.805,15.36,5.805,21.802
	s-2.82,13.903-5.806,21.802c-4.508,11.926-9.169,24.258-5.228,36.394c4.106,12.643,15.903,20.329,26.311,27.11
	c6.836,4.454,13.294,8.661,16.812,13.495c3.593,4.937,5.636,12.457,7.8,20.416c3.235,11.905,6.902,25.398,17.505,33.114
	c10.495,7.638,23.793,7.011,36.652,6.405c8.305-0.393,16.151-0.762,22.081,1.164c5.519,1.792,11.42,6.562,17.668,11.612
	c4.701,3.799,9.71,7.836,15.153,11.002L204.6,486.541l-29.778-33.184c-2.186-2.436-5.585-3.383-8.717-2.43l-42.635,12.992
	l26.731-95.86c1.248-4.477-1.369-9.118-5.846-10.367c-4.479-1.247-9.119,1.369-10.367,5.846l-30.855,110.645
	c-0.825,2.96,0.028,6.135,2.227,8.282s5.395,2.925,8.333,2.029l52.184-15.902l36.443,40.613c1.616,1.801,3.904,2.796,6.264,2.795
	c0.637,0,1.28-0.072,1.917-0.221c2.993-0.7,5.365-2.975,6.191-5.935l36.088-129.46c1.059,0.111,2.128,0.187,3.219,0.187
	c1.088,0,2.156-0.077,3.213-0.187l36.103,129.46c0.825,2.96,3.199,5.235,6.191,5.935c0.636,0.148,1.278,0.221,1.915,0.221
	c2.361,0,4.649-0.995,6.265-2.796l36.431-40.613l52.195,15.902c2.938,0.895,6.132,0.118,8.332-2.029
	c2.198-2.148,3.052-5.322,2.227-8.281l-38.214-137.05c7.617-7.905,10.742-19.355,13.534-29.631c2.163-7.96,4.207-15.479,7.8-20.416
	c3.518-4.834,9.976-9.041,16.812-13.495c10.409-6.781,22.206-14.467,26.31-27.109c3.941-12.136-0.72-24.468-5.228-36.394
	C426.902,202.189,424.083,194.729,424.083,188.286z M345.89,450.926c-3.131-0.956-6.532-0.006-8.718,2.43l-29.766,33.183
	l-32.277-115.739c5.446-3.167,10.456-7.204,15.159-11.006c6.247-5.05,12.148-9.819,17.667-11.612
	c5.932-1.926,13.777-1.555,22.082-1.164c8.648,0.408,17.49,0.814,25.549-1.28l32.952,118.178L345.89,450.926z M414.144,216.039
	c3.64,9.631,7.079,18.729,4.963,25.245c-2.268,6.985-10.633,12.435-19.49,18.205c-7.812,5.09-15.891,10.353-21.233,17.694
	c-5.415,7.441-7.967,16.828-10.433,25.906c-2.751,10.124-5.35,19.685-11.166,23.919c-5.712,4.155-15.544,3.692-25.956,3.201
	c-9.448-0.444-19.219-0.907-28.073,1.968c-8.48,2.754-15.886,8.74-23.049,14.53c-8.294,6.704-16.126,13.035-23.707,13.035
	s-15.415-6.332-23.708-13.036c-7.162-5.789-14.57-11.777-23.049-14.529c-5.584-1.813-11.533-2.299-17.535-2.299
	c-3.514,0-7.048,0.166-10.537,0.331c-10.41,0.491-20.243,0.955-25.955-3.201c-5.816-4.233-8.415-13.795-11.166-23.919
	c-2.466-9.078-5.018-18.466-10.433-25.906c-5.341-7.34-13.419-12.603-21.233-17.694c-8.857-5.77-17.222-11.221-19.49-18.206
	c-2.115-6.514,1.324-15.612,4.964-25.243c3.389-8.966,6.893-18.236,6.893-27.752c0-9.517-3.504-18.788-6.892-27.752
	c-3.641-9.631-7.079-18.729-4.964-25.244c2.268-6.985,10.633-12.435,19.49-18.205c7.812-5.09,15.891-10.353,21.233-17.692
	c5.415-7.441,7.967-16.828,10.433-25.906c2.751-10.124,5.35-19.685,11.166-23.919c5.71-4.156,15.546-3.693,25.956-3.201
	c9.447,0.445,19.219,0.907,28.073-1.968c8.48-2.754,15.886-8.74,23.049-14.529c8.292-6.706,16.126-13.038,23.706-13.038
	c7.58,0,15.415,6.332,23.707,13.035c7.162,5.79,14.57,11.777,23.049,14.53c8.854,2.875,18.623,2.415,28.072,1.968
	c10.41-0.49,20.244-0.954,25.955,3.201c5.816,4.233,8.415,13.795,11.166,23.919c2.466,9.078,5.018,18.466,10.433,25.906
	c5.341,7.34,13.419,12.603,21.232,17.692c8.857,5.77,17.222,11.22,19.491,18.206c2.115,6.515-1.323,15.612-4.964,25.244
	c-3.389,8.965-6.893,18.236-6.893,27.752C407.249,197.804,410.754,207.073,414.144,216.039z"/>
<path d="M288.506,152.776c4.648,0,8.416-3.768,8.416-8.416s-3.768-8.416-8.416-8.416h-65.01c-4.648,0-8.416,3.768-8.416,8.416
	s3.768,8.416,8.416,8.416H288.506z"/>
<path d="M223.496,240.627h65.01c4.648,0,8.416-3.768,8.416-8.416s-3.768-8.416-8.416-8.416h-65.01c-4.648,0-8.416,3.768-8.416,8.416
	S218.848,240.627,223.496,240.627z"/>
<path d="M320.227,188.286c0-4.648-3.768-8.416-8.416-8.416H286.46c-4.648,0-8.416,3.768-8.416,8.416s3.768,8.416,8.416,8.416h25.351
	C316.459,196.702,320.227,192.935,320.227,188.286z"/>
<path d="M191.774,188.286c0,4.648,3.768,8.416,8.416,8.416h59.914c4.648,0,8.416-3.768,8.416-8.416s-3.768-8.416-8.416-8.416H200.19
	C195.542,179.87,191.774,183.638,191.774,188.286z"/>
<g>
</g>
<g>
</g>
<g>
</g>
<g>
</g>
<g>
</g>
<g>
</g>
<g>
</g>
<g>
</g>
<g>
</g>
<g>
</g>
<g>
</g>
<g>
</g>
<g>
</g>
<g>
</g>
<g>
</g>
</svg>
