<?xml version="1.0" encoding="UTF-8" standalone="no"?>
<!-- Generator: Adobe Illustrator 19.0.0, SVG Export Plug-In . SVG Version: 6.00 Build 0)  -->

<svg
   xmlns:dc="http://purl.org/dc/elements/1.1/"
   xmlns:cc="http://creativecommons.org/ns#"
   xmlns:rdf="http://www.w3.org/1999/02/22-rdf-syntax-ns#"
   xmlns:svg="http://www.w3.org/2000/svg"
   xmlns="http://www.w3.org/2000/svg"
   xmlns:sodipodi="http://sodipodi.sourceforge.net/DTD/sodipodi-0.dtd"
   xmlns:inkscape="http://www.inkscape.org/namespaces/inkscape"
   version="1.1"
   id="Layer_1"
   x="0px"
   y="0px"
   viewBox="0 0 823.12744 823.12744"
   xml:space="preserve"
   inkscape:version="0.91 r13725"
   sodipodi:docname="logo.svg"
   width="823.12744"
   height="823.12744"><metadata
     id="metadata25395"><rdf:RDF><cc:Work
         rdf:about=""><dc:format>image/svg+xml</dc:format><dc:type
           rdf:resource="http://purl.org/dc/dcmitype/StillImage" /><dc:title></dc:title></cc:Work></rdf:RDF></metadata><defs
     id="defs25393" /><sodipodi:namedview
     pagecolor="#ffffff"
     bordercolor="#666666"
     borderopacity="1"
     objecttolerance="10"
     gridtolerance="10"
     guidetolerance="10"
     inkscape:pageopacity="0"
     inkscape:pageshadow="2"
     inkscape:window-width="1219"
     inkscape:window-height="776"
     id="namedview25391"
     showgrid="false"
     fit-margin-top="0"
     fit-margin-left="0"
     fit-margin-right="0"
     fit-margin-bottom="0"
     inkscape:zoom="0.22"
     inkscape:cx="-121.45468"
     inkscape:cy="-93.924486"
     inkscape:window-x="61"
     inkscape:window-y="24"
     inkscape:window-maximized="1"
     inkscape:current-layer="Layer_1" /><g
     id="g26318"
     transform="matrix(1.4633703,0,0,1.4633703,-180.02346,-118.91173)"><path
       inkscape:connector-curvature="0"
       id="path25345"
       d="m 479.29414,109.48032 c 0,0 44.536,108.954 -146.337,182.138 -103.716,39.755 -183.376,141.651 -88.262,299.055 7.877,-70.357 41.653,-225.485 186.888,-260.884 0,0 -135.176,50.546 -147.117,279.347 69.459,9.752 232.361,16.305 280.726,-125.062 63.866,-186.777 -85.898,-374.594 -85.898,-374.594 z"
       style="fill:#808080" /><path
       inkscape:connector-curvature="0"
       id="path25347"
       d="m 284.52914,608.18432 c 147.456,-58.849 254.748,-196.71 269.556,-361.283 -30.145,-81.314 -74.791,-137.421 -74.791,-137.421 0,0 44.536,108.954 -146.337,182.138 -103.716,39.755 -183.376,141.651 -88.262,299.055 7.877,-70.357 41.653,-225.485 186.888,-260.884 -0.008,0.001 -134.782,50.421 -147.054,278.395 z"
       style="fill:#333333" /></g><g
     id="g25361"
     transform="translate(179.52214,149.48032)" /><g
     id="g25363"
     transform="translate(179.52214,149.48032)" /><g
     id="g25365"
     transform="translate(179.52214,149.48032)" /><g
     id="g25367"
     transform="translate(179.52214,149.48032)" /><g
     id="g25369"
     transform="translate(179.52214,149.48032)" /><g
     id="g25371"
     transform="translate(179.52214,149.48032)" /><g
     id="g25373"
     transform="translate(179.52214,149.48032)" /><g
     id="g25375"
     transform="translate(179.52214,149.48032)" /><g
     id="g25377"
     transform="translate(179.52214,149.48032)" /><g
     id="g25379"
     transform="translate(179.52214,149.48032)" /><g
     id="g25381"
     transform="translate(179.52214,149.48032)" /><g
     id="g25383"
     transform="translate(179.52214,149.48032)" /><g
     id="g25385"
     transform="translate(179.52214,149.48032)" /><g
     id="g25387"
     transform="translate(179.52214,149.48032)" /><g
     id="g25389"
     transform="translate(179.52214,149.48032)" /></svg>